<?xml version="1.0" encoding="UTF-8" standalone="no"?>
<svg
   height="128"
   width="128"
   version="1.1"
   id="svg26"
   sodipodi:docname="icon.svg"
   inkscape:version="1.2.2 (1:1.2.2+202212051551+b0a8486541)"
   xmlns:inkscape="http://www.inkscape.org/namespaces/inkscape"
   xmlns:sodipodi="http://sodipodi.sourceforge.net/DTD/sodipodi-0.dtd"
   xmlns:xlink="http://www.w3.org/1999/xlink"
   xmlns="http://www.w3.org/2000/svg"
   xmlns:svg="http://www.w3.org/2000/svg">
  <defs
     id="defs30">
    <linearGradient
       inkscape:collect="always"
       id="linearGradient2738">
      <stop
         style="stop-color:#560cff;stop-opacity:1;"
         offset="0"
         id="stop2734" />
      <stop
         style="stop-color:#560cff;stop-opacity:0.7094087;"
         offset="1"
         id="stop2736" />
    </linearGradient>
    <linearGradient
       inkscape:collect="always"
       id="linearGradient1990">
      <stop
         style="stop-color:#cbcbcb;stop-opacity:1;"
         offset="0.81301355"
         id="stop1986" />
      <stop
         style="stop-color:#c35e25;stop-opacity:0;"
         offset="0.9997583"
         id="stop1988" />
    </linearGradient>
    <radialGradient
       inkscape:collect="always"
       xlink:href="#linearGradient1990"
       id="radialGradient1994"
       cx="32"
       cy="31.98"
       fx="32"
       fy="31.98"
       r="64"
       gradientTransform="matrix(1,0,0,0.9996875,0,0.00999375)"
       gradientUnits="userSpaceOnUse" />
    <radialGradient
       inkscape:collect="always"
       xlink:href="#linearGradient2738"
       id="radialGradient2742"
       cx="64.294182"
       cy="63.766121"
       fx="64.294182"
       fy="63.766121"
       r="41.004288"
       gradientTransform="matrix(1,0,0,1.0277596,0,-1.7701237)"
       gradientUnits="userSpaceOnUse" />
  </defs>
  <sodipodi:namedview
     id="namedview28"
     pagecolor="#505050"
     bordercolor="#ffffff"
     borderopacity="1"
     inkscape:showpageshadow="0"
     inkscape:pageopacity="0"
     inkscape:pagecheckerboard="1"
     inkscape:deskcolor="#505050"
     showgrid="false"
     inkscape:zoom="1.0101958"
     inkscape:cx="15.343561"
     inkscape:cy="11.383932"
     inkscape:window-width="1280"
     inkscape:window-height="736"
     inkscape:window-x="0"
     inkscape:window-y="27"
     inkscape:window-maximized="1"
     inkscape:current-layer="svg26" />
  <g
     transform="translate(32 32)"
     id="g6"
     style="fill:url(#radialGradient1994);fill-opacity:1;stroke:none">
    <path
       d="m-16-32c-8.86 0-16 7.13-16 15.99v95.98c0 8.86 7.13 15.99 16 15.99h96c8.86 0 16-7.13 16-15.99v-95.98c0-8.85-7.14-15.99-16-15.99z"
       fill="#363d52"
       id="path2"
       style="fill:url(#radialGradient1994);fill-opacity:1;stroke:none" />
    <path
       d="m-16-32c-8.86 0-16 7.13-16 15.99v95.98c0 8.86 7.13 15.99 16 15.99h96c8.86 0 16-7.13 16-15.99v-95.98c0-8.85-7.14-15.99-16-15.99zm0 4h96c6.64 0 12 5.35 12 11.99v95.98c0 6.64-5.35 11.99-12 11.99h-96c-6.64 0-12-5.35-12-11.99v-95.98c0-6.64 5.36-11.99 12-11.99z"
       fill-opacity=".4"
       id="path4"
       style="fill:url(#radialGradient1994);fill-opacity:1;stroke:none" />
  </g>
  <ellipse
     style="fill:url(#radialGradient2742);fill-opacity:1;stroke:#055efd;stroke-width:1;stroke-linecap:round;paint-order:stroke fill markers;stroke-opacity:1;stroke-dasharray:none;stroke-linejoin:round"
     id="path365"
     cx="64.294182"
     cy="63.766121"
     rx="41.004288"
     ry="42.142551" />
  <circle
     style="fill:#cdcdcd;fill-opacity:0.975387;stroke:none;stroke-width:69.1715;stroke-linecap:round;paint-order:stroke fill markers"
     id="path1701"
     cx="56.688396"
     cy="51.251549"
     r="28.337132" />
</svg>
